<svg width="486" height="732" viewBox="0 0 486 732" fill="none" xmlns="http://www.w3.org/2000/svg">
<path d="M100.85 1.6416C49.2502 10.8416 15.1169 47.1083 2.7169 105.775C-0.883098 122.575 -0.883098 177.242 2.58357 199.775C8.85024 240.175 18.8502 272.842 34.4502 303.908L44.8502 324.842V344.975V365.108L128.584 365.375L212.184 365.775L212.584 396.042L212.85 426.442H159.517H106.184V457.108V487.775H159.517H212.85V518.442V549.108H174.85H136.85V579.108V609.108L174.584 609.375L212.184 609.775L212.584 640.042L212.85 670.442L189.917 670.708L166.85 671.108L166.45 701.375L166.184 731.775H242.85H319.517L319.25 701.375L318.85 671.108L295.784 670.708L272.85 670.442L273.117 640.042L273.517 609.775L311.917 609.375L350.184 609.108V579.108V549.108H311.517H272.85V518.442V487.775H326.184H379.517V457.108V426.442H326.184H272.85L273.117 396.042L273.517 365.775L357.25 365.375L440.85 365.108V344.308V323.508L446.05 314.575C461.917 287.375 476.717 242.575 482.85 202.442C485.917 183.375 486.984 135.642 484.85 118.842C477.65 61.3749 448.717 21.6416 402.584 6.17493C372.584 -3.82507 341.517 -1.82507 294.317 13.2416C277.117 18.7083 265.117 21.1083 250.184 22.0416C230.05 23.2416 215.65 20.8416 180.85 10.0416C172.45 7.5083 160.717 4.30829 154.984 3.10828C140.45 0.174927 113.384 -0.625061 100.85 1.6416ZM143.784 62.9749C149.117 64.0416 161.384 67.3749 170.85 70.4416C203.65 80.8416 227.117 84.0416 258.184 82.1749C276.317 81.1083 290.184 78.1749 317.25 69.9083C342.45 62.1749 351.517 60.575 367.517 61.3749C378.45 61.9083 381.917 62.7083 389.384 66.1749C405.917 73.9083 416.45 88.7083 422.45 112.575C424.984 122.708 425.384 128.042 425.384 149.775C425.384 178.708 423.117 197.108 416.184 224.575C409.25 252.308 400.184 273.908 386.317 295.375L380.184 305.108H357.25H334.184V274.442V243.775H242.85H151.517V274.442V305.108H128.584H105.517L99.2502 295.375C77.6502 261.775 64.8502 219.775 60.7169 169.775C58.1836 137.375 61.2502 112.442 70.0502 93.775C77.9169 77.2416 90.5836 66.1749 105.784 62.575C113.784 60.7083 132.984 60.9749 143.784 62.9749Z" fill="#FFF9F9"/>
<style>
    path {
      fill: black;
    }
    @media (prefers-color-scheme: dark) {
      path {
        fill: white;
      }
    }
  </style>
</svg>
