<svg width="40" height="40" viewBox="0 0 40 40" fill="none" xmlns="http://www.w3.org/2000/svg">
<path d="M30.2109 5.92175L24.2969 11.8358L20.3359 13.1561C17.4922 14.1014 16.3281 14.5233 16.1953 14.6561C16.0781 14.7733 16.0156 14.9296 16.0156 15.0936C16.0156 15.328 16.375 15.7108 20.1719 19.5077C22.6406 21.9764 24.3984 23.6796 24.5156 23.7108C24.8047 23.7811 25.1328 23.6171 25.2578 23.3358C25.3203 23.1952 25.9453 21.3592 26.6406 19.2577L27.9062 15.4296L33.8516 9.47644L39.8047 3.5155L39.375 3.08581C39.1406 2.85144 38.9141 2.65612 38.8672 2.65612C38.8281 2.65612 36.2031 5.24206 33.0469 8.39831L27.3047 14.1405L26.4453 13.2811L25.5859 12.4217L31.3672 6.6405L37.1484 0.859249L36.7188 0.429562C36.4844 0.195187 36.2578 -0.000125885 36.2109 -0.000125885C36.1719 -0.000125885 33.4688 2.66394 30.2109 5.92175ZM25.5312 14.2421L26.5625 15.2733L25.5 18.4764C24.9141 20.2421 24.4141 21.703 24.3828 21.7342C24.3516 21.7655 24 21.4608 23.5938 21.0546L22.8594 20.3202L24.0078 18.5936C24.6406 17.6483 25.1562 16.8436 25.1562 16.8046C25.1562 16.6874 24.1406 16.0624 24.0703 16.1405C24.0312 16.1796 23.5391 16.9061 22.9766 17.7499C22.4141 18.6014 21.9219 19.2967 21.8906 19.2967C21.8594 19.2967 21.5078 18.9686 21.1094 18.5702L20.3828 17.8436L21.9609 16.7889C22.8281 16.2108 23.5703 15.7186 23.6172 15.6874C23.6719 15.6561 23.5625 15.4296 23.3359 15.0858L22.9688 14.5311L21.1953 15.7108L19.4297 16.8905L18.6875 16.1405C18.2734 15.7342 17.9531 15.3827 17.9688 15.3671C18.0234 15.3202 24.3125 13.2186 24.4141 13.2108C24.4609 13.203 24.9609 13.6717 25.5312 14.2421Z" fill="#304D75"/>
<path d="M4.94531 2.53894C4.83594 2.61707 4.71094 2.85925 4.60938 3.203C4.32812 4.1405 3.67969 4.78113 2.72656 5.04675C2.21094 5.19519 2.03125 5.37488 2.03125 5.74207C2.03125 6.12488 2.21094 6.29675 2.79688 6.47644C3.08594 6.56238 3.47656 6.74207 3.65625 6.87488C4.07031 7.17175 4.47656 7.79675 4.64062 8.37488C4.78125 8.85925 4.97656 9.06238 5.32031 9.06238C5.67188 9.06238 5.90625 8.79675 6.08594 8.21082C6.35156 7.328 6.99219 6.72644 7.97656 6.43738C8.38281 6.31238 8.67188 6.02332 8.67188 5.74207C8.67188 5.42175 8.39844 5.18738 7.79688 4.99207C7.3125 4.84363 7.15625 4.74207 6.75 4.34363C6.35156 3.94519 6.25 3.78113 6.10156 3.32019C5.83594 2.50769 5.40625 2.21863 4.94531 2.53894ZM5.79688 5.29675L6.24219 5.74988L5.78906 6.203L5.33594 6.64832L4.875 6.203L4.41406 5.74988L4.84375 5.30457C5.07812 5.06238 5.28906 4.85925 5.3125 4.85144C5.33594 4.85144 5.55469 5.04675 5.79688 5.29675Z" fill="#304D75"/>
<path d="M13.0859 6.4843C10.9531 6.82024 9.3125 7.63274 7.89844 9.07024C6.48438 10.5077 5.60156 12.4062 5.39844 14.4296C5.28125 15.6093 5.39063 17.4062 5.67188 18.8515C5.74219 19.1874 5.78125 19.4765 5.76563 19.4843C5.75 19.4999 4.51563 19.8515 3.02344 20.2734C1.53125 20.7031 0.265628 21.0702 0.218753 21.1015C0.132815 21.1562 0.320315 22.0312 0.468753 22.2656C0.515628 22.3437 1.23438 22.1718 3.64844 21.4843C5.35938 20.9999 6.83594 20.5546 6.9375 20.4921C7.26563 20.289 7.29688 20.0859 7.11719 19.2499C6.75 17.5077 6.60938 15.789 6.72656 14.5546C6.89063 12.7812 7.67188 11.164 8.96094 9.91399C10.2734 8.63274 11.8438 7.92962 13.7109 7.77337C14.6719 7.68743 15.6406 7.84368 16.9688 8.28899C18.4531 8.78899 19 8.90618 19.9844 8.90618C20.9453 8.90618 21.6875 8.76555 22.8125 8.3593C24.0078 7.93743 24.6797 7.7968 25.7031 7.77337L26.6016 7.75774L26.6641 7.15618C26.7031 6.82024 26.7109 6.52337 26.6797 6.49993C26.5781 6.39837 24.6484 6.46868 24.0625 6.59368C23.7422 6.66399 22.9531 6.90618 22.3125 7.12493C21.25 7.4843 21.0625 7.52337 20.2813 7.55462C19.25 7.60149 18.6719 7.49212 17.4453 7.0468C16.9844 6.87493 16.3203 6.6718 15.9766 6.60149C15.2188 6.44524 13.7266 6.39055 13.0859 6.4843Z" fill="#304D75"/>
<path d="M13.3203 9.14832C12.6016 9.25769 12.0547 9.43738 11.2891 9.828C10.7109 10.1171 10.4531 10.3202 9.84375 10.9296C9.21875 11.5624 9.03906 11.7968 8.72656 12.4218C8.17969 13.5233 8.03125 14.1718 8.03906 15.5468C8.03906 17.5936 8.50781 19.8436 9.33594 21.828C9.39062 21.9608 9.375 21.9608 9.13281 21.9061C8.98438 21.8671 8.5 21.8358 8.04688 21.8358C7.23438 21.8358 7.21094 21.8436 3.82812 22.8046C0.945312 23.6327 0.398438 23.8124 0.21875 23.9921L0 24.203V31.7499V39.2889L0.1875 39.5077L0.375 39.7264H20H39.625L39.8125 39.5077L40 39.2889V31.7499V24.203L39.7891 23.9921C39.6016 23.8124 39.0547 23.6327 36.1719 22.8046C32.7891 21.8436 32.7656 21.8358 31.9531 21.8358C31.5 21.8358 31.0156 21.8671 30.8672 21.9061C30.625 21.9608 30.6094 21.9608 30.6641 21.828C31.1875 20.578 31.6328 18.953 31.8359 17.5389C31.9453 16.7889 32.0234 14.4218 31.9453 14.3436C31.9141 14.3124 31.1406 14.4139 30.8047 14.4921C30.6484 14.5311 30.6406 14.5702 30.6328 15.5311C30.6172 17.9999 30.0625 20.1249 28.7109 22.8124L28.0234 24.1796L27.4219 29.5311C26.9844 33.4296 26.7891 34.953 26.6953 35.1327C26.5156 35.4764 26.0938 35.7186 25.6719 35.7186C25.0781 35.7186 24.6172 35.3671 24.4609 34.8046C24.4141 34.6327 24.0547 32.3436 23.6641 29.7264C23.2812 27.1014 22.9219 24.8202 22.875 24.6483C22.6641 23.828 22.0469 23.1014 21.2578 22.7108C20.7891 22.4843 20.6719 22.4608 20 22.4608C19.3594 22.4608 19.1953 22.4921 18.8125 22.6718C17.9688 23.0624 17.3203 23.8358 17.1094 24.6952C17.0625 24.8827 16.6953 27.2655 16.2891 29.9843C15.8828 32.703 15.5156 34.9843 15.4766 35.0624C15.3438 35.3124 14.9609 35.6093 14.6875 35.6796C14.0625 35.8436 13.3672 35.453 13.2109 34.8514C13.1641 34.6952 12.875 32.2343 12.5547 29.3749L11.9766 24.1796L11.2344 22.6874C9.92969 20.0468 9.38281 17.9686 9.36719 15.6014C9.36719 14.4374 9.45312 13.9764 9.85938 13.1327C10.1016 12.6249 10.3047 12.3514 10.7656 11.8827C11.7656 10.8749 12.8203 10.4452 14.2578 10.4452C15 10.4452 15.1016 10.4686 16.3281 10.8827C17.0391 11.1249 17.9297 11.3749 18.3125 11.4452C19.1953 11.5936 20.7969 11.5936 21.6875 11.4452C22.5547 11.2889 23.8281 10.8749 23.8281 10.7421C23.8281 10.6874 23.7188 10.4061 23.5938 10.1171C23.4219 9.73425 23.3281 9.60144 23.2422 9.6405C22.8281 9.79675 21.7578 10.0858 21.3281 10.1561C20.625 10.2655 19.2188 10.2499 18.5156 10.1249C18.1953 10.0702 17.3984 9.83582 16.7422 9.61707C15.2031 9.09363 14.4219 8.99207 13.3203 9.14832ZM9.3125 23.3749C9.82031 23.6093 10.3828 24.1014 10.5703 24.4686C10.6719 24.6561 10.8516 26.0624 11.25 29.6874C11.5547 32.4139 11.8359 34.8202 11.875 35.0389C12.0469 35.8905 12.6953 36.6327 13.5078 36.9139C13.9453 37.0624 14.8047 37.0624 15.2266 36.9139C15.8984 36.6796 16.5469 36.0389 16.7656 35.3905C16.8281 35.2186 17.2109 32.8358 17.6172 30.0936C18.0312 27.3593 18.4062 24.9999 18.4453 24.8593C18.6406 24.2421 19.3359 23.7499 20 23.7499C20.6641 23.7499 21.3516 24.2421 21.5547 24.8593C21.6016 24.9999 21.9688 27.3593 22.3828 30.0936C22.7891 32.828 23.1875 35.2343 23.2656 35.4374C23.4297 35.8983 24.0391 36.578 24.4766 36.7889C25.4844 37.2811 26.8281 37.0468 27.5156 36.2577C28.0938 35.6014 28.0938 35.6014 28.7188 29.9686C29.0391 27.1327 29.3125 24.7264 29.3359 24.6405C29.4062 24.3202 30.0703 23.6874 30.6094 23.4218C31.0391 23.2108 31.2344 23.1561 31.7578 23.1405C32.3516 23.1171 32.5234 23.1561 35.5078 24.0077L38.6328 24.8983L38.6562 31.6718L38.6719 38.4374H20H1.32812L1.34375 31.6718L1.36719 24.8983L4.45312 24.0155C7.42188 23.1561 7.5625 23.1249 8.20312 23.1483C8.72656 23.1639 8.96094 23.2108 9.3125 23.3749Z" fill="#304D75"/>
<path d="M33.1484 11.7656L32.5938 12.039L32.7656 12.4452C33.4531 13.9999 33.4922 16.3593 32.8828 19.2499C32.7031 20.0859 32.7344 20.289 33.0625 20.4921C33.1641 20.5546 34.6406 20.9999 36.3516 21.4843C38.7656 22.1718 39.4844 22.3437 39.5312 22.2656C39.5625 22.2109 39.6562 21.9374 39.7266 21.664C39.8281 21.2968 39.8438 21.1406 39.7812 21.1015C39.7266 21.0702 38.4531 20.6952 36.9453 20.2656L34.2109 19.4921L34.2578 19.2577C34.6562 17.3359 34.75 14.8046 34.4766 13.5156C34.3125 12.7656 33.8594 11.4765 33.7656 11.4921C33.7344 11.4921 33.4609 11.6171 33.1484 11.7656Z" fill="#304D75"/>
<path d="M12.2031 13.1874C11.75 13.6405 11.5156 13.9608 11.2656 14.453C10.8281 15.3358 10.7031 15.8749 10.7031 16.8905V17.7343H11.3672H12.0312V16.9608C12.0312 15.6874 12.4766 14.6483 13.3359 13.9218L13.6875 13.6171L13.3516 13.1014C13.1641 12.8124 12.9609 12.578 12.9062 12.578C12.8438 12.578 12.5312 12.8514 12.2031 13.1874Z" fill="#304D75"/>
</svg>
