<svg width="32" height="48" viewBox="0 0 32 48" fill="none" xmlns="http://www.w3.org/2000/svg">
<path d="M6.64081 0.107679C3.24304 0.711143 0.995421 3.09002 0.178903 6.93819C-0.0581504 8.04017 -0.0581504 11.626 0.170123 13.104C0.582772 15.754 1.24125 17.8968 2.26849 19.9345L2.95331 21.3076V22.6283V23.9489L8.467 23.9664L13.9719 23.9926L13.9982 25.9779L14.0158 27.972H10.5039H6.992V29.9835V31.9951H10.5039H14.0158V34.0066V36.0182H11.5136H9.01134V37.986V39.9538L11.496 39.9713L13.9719 39.9975L13.9982 41.9828L14.0158 43.9769L12.5057 43.9944L10.9868 44.0206L10.9604 46.0059L10.9429 48H15.9913H21.0396L21.0221 46.0059L20.9957 44.0206L19.4768 43.9944L17.9667 43.9769L17.9843 41.9828L18.0106 39.9975L20.5392 39.9713L23.059 39.9538V37.986V36.0182H20.5128H17.9667V34.0066V31.9951H21.4786H24.9905V29.9835V27.972H21.4786H17.9667L17.9843 25.9779L18.0106 23.9926L23.5243 23.9664L29.0292 23.9489V22.5845V21.2202L29.3716 20.6342C30.4164 18.8501 31.391 15.9114 31.7948 13.2789C31.9968 12.0283 32.067 8.89727 31.9265 7.79529C31.4524 4.02582 29.5472 1.41956 26.5094 0.405038C24.534 -0.250901 22.4883 -0.119713 19.3802 0.868569C18.2477 1.22715 17.4575 1.38457 16.4741 1.4458C15.1484 1.52451 14.2002 1.36708 11.9087 0.658668C11.3555 0.492497 10.5829 0.282596 10.2054 0.203884C9.2484 0.0114747 7.46611 -0.0410004 6.64081 0.107679ZM9.46789 4.13077C9.81908 4.20074 10.6268 4.41939 11.2502 4.62054C13.41 5.30272 14.9552 5.51262 17.0009 5.39018C18.195 5.32021 19.1081 5.1278 20.8904 4.58556C22.5497 4.0783 23.1468 3.97335 24.2003 4.02582C24.9203 4.06081 25.1485 4.11328 25.6402 4.34067C26.7289 4.84793 27.4225 5.81872 27.8176 7.38423C27.9844 8.04892 28.0107 8.39875 28.0107 9.82433C28.0107 11.7222 27.8615 12.9291 27.4049 14.7308C26.9484 16.5499 26.3514 17.9667 25.4383 19.3748L25.0344 20.0133H23.5243H22.0054V18.0017V15.9902H15.9913H9.97712V18.0017V20.0133H8.467H6.9481L6.53545 19.3748C5.11313 17.1708 4.27027 14.4159 3.9981 11.1362C3.83128 9.01096 4.03322 7.37549 4.61268 6.15107C5.13069 5.06658 5.96477 4.34067 6.96566 4.10454C7.49244 3.98209 8.75673 3.99959 9.46789 4.13077Z" fill="#FFF9F9"/>
</svg>
